<?xml version="1.0" encoding="iso-8859-1"?>
<!-- Uploaded to: SVG Repo, www.svgrepo.com, Generator: SVG Repo Mixer Tools -->
<svg height="800px" width="800px" version="1.1" id="Layer_1" xmlns="http://www.w3.org/2000/svg" xmlns:xlink="http://www.w3.org/1999/xlink" 
	 viewBox="0 0 512 512" xml:space="preserve">
<g>
	<path style="fill:#656D3F;" d="M397.942,158.695c-49.003,49.003-140.325,37.131-140.325,37.131s-11.872-91.322,37.131-140.325
		S435.073,18.37,435.073,18.37S446.945,109.692,397.942,158.695z"/>
	<path style="fill:#656D3F;" d="M114.055,158.695c49.003,49.003,140.325,37.131,140.325,37.131s11.872-91.322-37.131-140.325
		S76.924,18.37,76.924,18.37S65.052,109.692,114.055,158.695z"/>
</g>
<path style="fill:#492828;" d="M456.334,182.146h-59.52c4.615-3.423,9.053-7.181,13.223-11.353
	c54.331-54.331,42.528-150.556,41.998-154.626c-1.001-7.698-7.06-13.757-14.758-14.758C436.837,1.35,426.272,0,410.532,0
	c-31.547,0-90.114,5.638-127.88,43.406c-11.692,11.692-20.315,25.326-26.653,39.563c-6.338-14.238-14.961-27.871-26.653-39.563
	C191.579,5.638,133.013,0,101.464,0C85.725,0,75.16,1.35,74.717,1.408c-7.698,1.001-13.757,7.06-14.758,14.758
	c-0.53,4.07-12.332,100.294,41.998,154.627c4.172,4.172,8.608,7.93,13.223,11.353H55.662c-9.448,0-17.106,7.658-17.106,17.106
	v95.954c0,9.448,7.658,17.106,17.106,17.106h13.5l24.014,184.786c1.107,8.524,8.368,14.901,16.964,14.901h291.719
	c8.594,0,15.856-6.379,16.964-14.901l24.014-184.786h13.5c9.448,0,17.106-7.659,17.106-17.106v-95.954
	C473.441,189.805,465.782,182.146,456.334,182.146z M306.844,67.597c29.048-29.048,77.432-33.385,103.688-33.385
	c3.1,0,5.958,0.06,8.524,0.152c0.893,25.523-1.333,80.359-33.21,112.234c-29.046,29.048-77.432,33.385-103.688,33.385
	c-3.1,0-5.958-0.06-8.524-0.152C272.741,154.309,274.967,99.475,306.844,67.597z M92.94,34.365c2.566-0.092,5.424-0.152,8.524-0.152
	c26.256,0,74.64,4.336,103.688,33.385c31.881,31.879,34.105,86.726,33.212,112.234c-2.566,0.092-5.426,0.152-8.524,0.152
	c-26.256,0-74.642-4.338-103.688-33.385C94.271,114.72,92.047,59.874,92.94,34.365z M386.832,477.787H125.167l-21.504-165.476
	h174.707c9.448,0,17.106-7.659,17.106-17.106c0-9.448-7.659-17.106-17.106-17.106H72.768v-61.742H439.23v61.742h-52.641
	c-9.448,0-17.106,7.658-17.106,17.106c0,9.448,7.658,17.106,17.106,17.106h21.749L386.832,477.787z"/>
</svg>